<svg width="24" height="23" viewBox="0 0 24 23" fill="none" xmlns="http://www.w3.org/2000/svg">
<ellipse cx="11.5348" cy="11.5" rx="11.5348" ry="11.5" fill="#CA0100"/>
<path d="M15.571 14.1186L14.1769 12.7254C13.8992 12.449 13.4393 12.4574 13.152 12.7446L12.4496 13.4463C12.4052 13.4219 12.3593 13.3963 12.311 13.3693C11.8675 13.1237 11.2604 12.7871 10.6216 12.1483C9.98094 11.5082 9.64378 10.9007 9.39728 10.4572C9.37126 10.4102 9.34634 10.3649 9.32173 10.3219L9.79312 9.85156L10.0249 9.6197C10.3127 9.33205 10.3206 8.87268 10.0436 8.59552L8.64945 7.20215C8.37241 6.92538 7.91236 6.93377 7.62456 7.22143L7.23165 7.61629L7.24239 7.62695C7.11064 7.79493 7.00055 7.98867 6.91862 8.19759C6.8431 8.39646 6.79608 8.58624 6.77458 8.7764C6.59049 10.3013 7.28788 11.695 9.18049 13.5862C11.7966 16.2002 13.9049 16.0027 13.9959 15.9931C14.194 15.9694 14.3838 15.9221 14.5767 15.8473C14.784 15.7664 14.9778 15.6565 15.1458 15.5252L15.1544 15.5328L15.5524 15.1433C15.8396 14.8557 15.8479 14.3962 15.571 14.1186Z" fill="white"/>
</svg>
