<svg width="24" height="23" viewBox="0 0 24 23" fill="none" xmlns="http://www.w3.org/2000/svg">
<path d="M23.0697 11.5C23.0697 17.8513 17.9054 23 11.5348 23C5.16432 23 0 17.8513 0 11.5C0 5.14873 5.16432 0 11.5348 0C17.9054 0 23.0697 5.14873 23.0697 11.5Z" fill="#CA0100"/>
<path d="M11.5332 7C9.04425 7 7.01953 9.0186 7.01953 11.5C7.01953 13.9814 9.04425 16 11.5332 16C14.0221 16 16.0468 13.9814 16.0468 11.5C16.0468 9.0186 14.0221 7 11.5332 7ZM13.6798 13.8276C13.6064 13.9007 13.5102 13.9375 13.4139 13.9375C13.3176 13.9375 13.2212 13.9007 13.148 13.8276L11.2672 11.9526C11.1965 11.8825 11.1571 11.7872 11.1571 11.6875V9.25C11.1571 9.04263 11.3255 8.87502 11.5332 8.87502C11.7408 8.87502 11.9093 9.04263 11.9093 9.25V11.5323L13.6798 13.2974C13.8268 13.444 13.8268 13.681 13.6798 13.8276V13.8276Z" fill="white"/>
</svg>
