<svg width="24" height="23" viewBox="0 0 24 23" fill="none" xmlns="http://www.w3.org/2000/svg">
<ellipse cx="11.5348" cy="11.5" rx="11.5348" ry="11.5" fill="#CA0100"/>
<path d="M11.5332 6C9.04433 6 7.01953 7.78739 7.01953 9.98437C7.01953 12.7109 11.0588 16.7136 11.2308 16.8827C11.3923 17.0415 11.6743 17.0412 11.8356 16.8827C12.0075 16.7136 16.0468 12.7109 16.0468 9.98437C16.0467 7.78739 14.022 6 11.5332 6ZM11.5332 11.989C10.281 11.989 9.26227 11.0897 9.26227 9.98437C9.26227 8.879 10.281 7.97974 11.5332 7.97974C12.7853 7.97974 13.804 8.87902 13.804 9.98439C13.804 11.0898 12.7853 11.989 11.5332 11.989Z" fill="white"/>
</svg>
