<svg width="12" height="12" viewBox="0 0 12 12" fill="none" xmlns="http://www.w3.org/2000/svg">
<path d="M11.1657 9.05459L9.90331 8.21293L8.78109 7.46492C8.56451 7.32083 8.27346 7.36807 8.11357 7.5733L7.41916 8.466C7.27 8.65971 7.00167 8.71538 6.78777 8.59695C6.31659 8.33485 5.7594 8.08807 4.53001 6.8571C3.30061 5.62613 3.05226 5.07052 2.79016 4.59934C2.67173 4.38543 2.72739 4.11711 2.92111 3.96796L3.81381 3.27356C4.01902 3.1137 4.06628 2.82264 3.92218 2.60604L3.19715 1.51838L2.33252 0.221424C2.18536 0.000667667 1.89076 -0.0656082 1.66324 0.0708355L0.666083 0.669052C0.396599 0.827825 0.198505 1.08421 0.112836 1.38505C-0.159851 2.37926 -0.214829 4.57243 3.30001 8.08727C6.81485 11.6021 9.00783 11.547 10.002 11.2742C10.3029 11.1886 10.5593 10.9905 10.718 10.721L11.3162 9.72386C11.4527 9.49632 11.3864 9.20175 11.1657 9.05459Z" fill="#CA0100"/>
</svg>
